<svg width="35" height="35" viewBox="0 0 35 35" fill="none" xmlns="http://www.w3.org/2000/svg">
<path d="M6.2821 28.4374C5.54545 28.4374 4.92192 28.1822 4.4115 27.6718C3.90108 27.1614 3.64587 26.5379 3.64587 25.8012V9.19873C3.64587 8.46208 3.90108 7.83854 4.4115 7.32813C4.92192 6.81771 5.54545 6.5625 6.2821 6.5625H28.7179C29.4546 6.5625 30.0781 6.81771 30.5885 7.32813C31.0989 7.83854 31.3541 8.46208 31.3541 9.19873V25.8012C31.3541 26.5379 31.0989 27.1614 30.5885 27.6718C30.0781 28.1822 29.4546 28.4374 28.7179 28.4374H6.2821ZM29.1667 10.8533L18.2095 17.8673C18.0973 17.9309 17.9814 17.9809 17.8618 18.0173C17.7421 18.0538 17.6215 18.072 17.5 18.072C17.3785 18.072 17.2579 18.0538 17.1382 18.0173C17.0186 17.9809 16.9027 17.9309 16.7905 17.8673L5.83334 10.8533V25.8012C5.83334 25.9321 5.87541 26.0396 5.95956 26.1237C6.0437 26.2079 6.15122 26.25 6.2821 26.25H28.7179C28.8488 26.25 28.9563 26.2079 29.0405 26.1237C29.1246 26.0396 29.1667 25.9321 29.1667 25.8012V10.8533ZM17.5 16.0416L28.9423 8.74996H6.0577L17.5 16.0416ZM5.83334 11.1898V9.52259V9.56605V9.51978V11.1898Z" fill="white"/>
</svg>
